<svg width="16" height="15" viewBox="0 0 16 15" fill="none" xmlns="http://www.w3.org/2000/svg">
<path d="M7.60067 0.817336C7.7631 0.484882 8.2369 0.484881 8.39933 0.817335L10.2335 4.57137C10.2982 4.70393 10.4246 4.79571 10.5706 4.81634L14.7077 5.40065C15.0741 5.45239 15.2205 5.90301 14.9545 6.16022L11.951 9.06465C11.8449 9.16721 11.7967 9.31571 11.8222 9.46102L12.5449 13.5762C12.6089 13.9406 12.2256 14.2191 11.8988 14.0456L8.20839 12.0866C8.07807 12.0174 7.92193 12.0174 7.79161 12.0866L4.1012 14.0456C3.77438 14.2191 3.39107 13.9406 3.45507 13.5762L4.17779 9.46102C4.20331 9.31571 4.15506 9.16721 4.049 9.06465L1.04548 6.16022C0.779491 5.90301 0.925903 5.45239 1.29228 5.40065L5.42936 4.81634C5.57544 4.79571 5.70177 4.70393 5.76653 4.57137L7.60067 0.817336Z" fill="#15B881"/>
</svg>
